<svg width="213" height="63" viewBox="0 0 213 63" fill="none" xmlns="http://www.w3.org/2000/svg">
    <path d="M205.111 0H7.889C3.532 0 0 3.526 0 7.875v47.25C0 59.475 3.532 63 7.889 63H205.11c4.357 0 7.889-3.526 7.889-7.875V7.875C213 3.525 209.468 0 205.111 0z" fill="#0F1216"/>
    <path d="M205.111 1.26c1.758 0 3.443.697 4.686 1.937a6.608 6.608 0 0 1 1.941 4.678v47.25a6.608 6.608 0 0 1-1.941 4.678 6.633 6.633 0 0 1-4.686 1.937H7.889a6.632 6.632 0 0 1-4.686-1.938 6.609 6.609 0 0 1-1.94-4.677V7.875a6.61 6.61 0 0 1 1.94-4.678A6.633 6.633 0 0 1 7.89 1.26H205.11zm0-1.26H7.889C5.797 0 3.79.83 2.31 2.307A7.868 7.868 0 0 0 0 7.875v47.25c0 2.089.831 4.092 2.31 5.569A7.896 7.896 0 0 0 7.89 63H205.11c2.092 0 4.099-.83 5.578-2.306A7.866 7.866 0 0 0 213 55.124V7.875a7.866 7.866 0 0 0-2.311-5.568A7.895 7.895 0 0 0 205.111 0z" fill="#0F1216"/>
    <path d="M107.51 34.256a6.716 6.716 0 0 0-6.2 4.157 6.704 6.704 0 0 0 1.474 7.309 6.724 6.724 0 0 0 7.328 1.436 6.72 6.72 0 0 0 3.011-2.478 6.702 6.702 0 0 0 1.124-3.73 6.594 6.594 0 0 0-4.146-6.22 6.62 6.62 0 0 0-2.591-.474zm0 10.758a4.077 4.077 0 0 1-3.957-2.303 4.054 4.054 0 0 1 .692-4.519 4.076 4.076 0 0 1 6.341.474c.461.673.708 1.469.71 2.284a3.87 3.87 0 0 1-3.786 4.063zM92.805 34.255a6.73 6.73 0 0 0-3.732 1.14 6.711 6.711 0 0 0-2.841 6.894 6.706 6.706 0 0 0 1.847 3.431 6.726 6.726 0 0 0 7.328 1.438 6.72 6.72 0 0 0 3.011-2.479 6.701 6.701 0 0 0 1.124-3.73 6.588 6.588 0 0 0-1.947-4.773 6.612 6.612 0 0 0-4.79-1.92zm0 10.758a4.076 4.076 0 0 1-3.957-2.303 4.057 4.057 0 0 1 .692-4.519 4.071 4.071 0 0 1 4.466-1.016 4.07 4.07 0 0 1 2.586 3.774 3.87 3.87 0 0 1-2.286 3.724 3.888 3.888 0 0 1-1.501.34zm-17.482-8.695v2.835h6.816a5.932 5.932 0 0 1-1.578 3.576 6.975 6.975 0 0 1-5.27 2.079 7.58 7.58 0 0 1-5.355-2.215 7.554 7.554 0 0 1 0-10.691 7.58 7.58 0 0 1 5.356-2.214 7.328 7.328 0 0 1 5.175 2.032l2.004-2a9.942 9.942 0 0 0-7.148-2.867 10.448 10.448 0 0 0-7.635 2.9 10.411 10.411 0 0 0-3.2 7.503 10.394 10.394 0 0 0 3.2 7.503 10.43 10.43 0 0 0 7.635 2.9 9.592 9.592 0 0 0 7.274-2.914 9.44 9.44 0 0 0 2.461-6.663 9.846 9.846 0 0 0-.142-1.764h-9.593zm71.489 2.206a6.3 6.3 0 0 0-2.206-3.026 6.32 6.32 0 0 0-3.537-1.243 6.325 6.325 0 0 0-4.608 1.982 6.287 6.287 0 0 0-1.703 4.712 6.654 6.654 0 0 0 1.291 4 6.686 6.686 0 0 0 10.953-.268l-2.288-1.574a3.801 3.801 0 0 1-3.298 1.843 3.395 3.395 0 0 1-3.25-2.032l8.978-3.701-.332-.694zm-9.151 2.236a3.672 3.672 0 0 1 2.103-3.57 3.7 3.7 0 0 1 1.416-.352 2.592 2.592 0 0 1 2.477 1.434l-5.996 2.488zm-7.289 6.489h2.95V27.562h-2.95V47.25zm-4.828-11.498h-.111a4.627 4.627 0 0 0-3.534-1.575 6.728 6.728 0 0 0-4.541 2.074 6.707 6.707 0 0 0-1.855 4.628c0 1.723.665 3.38 1.855 4.628a6.727 6.727 0 0 0 4.541 2.074 4.552 4.552 0 0 0 3.534-1.575h.111v.96c0 2.568-1.373 3.938-3.582 3.938a3.727 3.727 0 0 1-3.392-2.378l-2.556 1.055a6.305 6.305 0 0 0 5.948 3.969c3.456 0 6.311-2.032 6.311-6.977V34.65h-2.729v1.102zm-3.392 9.261a4.076 4.076 0 0 1-2.714-1.273 4.06 4.06 0 0 1 2.714-6.838 3.772 3.772 0 0 1 3.411 2.56c.161.479.224.985.186 1.488a3.734 3.734 0 0 1-.928 2.8 3.748 3.748 0 0 1-2.669 1.264zm38.482-17.45h-7.069V47.25h2.951v-7.465h4.118a6.148 6.148 0 0 0 4.621-1.627 6.126 6.126 0 0 0 1.446-6.93 6.136 6.136 0 0 0-6.067-3.666zm0 9.45h-4.118v-6.71h4.181a3.384 3.384 0 0 1 2.387.987 3.368 3.368 0 0 1-2.387 5.754l-.063-.031zm18.207-2.82a5.512 5.512 0 0 0-5.254 3.009l2.603 1.086a2.811 2.811 0 0 1 2.698-1.433 2.846 2.846 0 0 1 2.828 1.467c.179.33.291.694.328 1.069v.189a6.607 6.607 0 0 0-3.077-.756c-2.808 0-5.68 1.575-5.68 4.441a4.543 4.543 0 0 0 1.535 3.203 4.565 4.565 0 0 0 3.372 1.128 4.183 4.183 0 0 0 3.755-1.921h.095v1.575h2.84v-7.576c0-3.449-2.619-5.45-5.98-5.45l-.063-.03zm-.363 10.789c-.962 0-2.303-.488-2.303-1.67 0-1.575 1.672-2.11 3.155-2.11a5.242 5.242 0 0 1 2.682.662 3.558 3.558 0 0 1-3.471 3.15l-.063-.032zm16.756-10.332l-3.376 8.537h-.095l-3.503-8.537h-3.155l5.254 11.939-2.998 6.63h3.077l8.078-18.569h-3.282zm-26.506 12.6h2.934V27.562h-2.934V47.25z" fill="#fff"/>
    <path d="M16.472 11.876a3.147 3.147 0 0 0-.742 2.205v34.838a3.053 3.053 0 0 0 .742 2.206l.11.126 19.55-19.515v-.472l-19.55-19.499-.11.11z" fill="url(#paint0_linear_19_151)"/>
    <path d="M42.6 38.241l-6.469-6.505v-.472l6.469-6.505.142.095 7.747 4.378c2.209 1.244 2.209 3.292 0 4.552l-7.715 4.378-.174.079z" fill="url(#paint1_linear_19_151)"/>
    <path d="M42.79 38.147L36.13 31.5 16.472 51.124a2.558 2.558 0 0 0 3.266.11l23.051-13.087" fill="url(#paint2_linear_19_151)"/>
    <path d="M42.79 24.854L19.737 11.78a2.543 2.543 0 0 0-3.266.095L36.132 31.5l6.657-6.646z" fill="url(#paint3_linear_19_151)"/>
    <path opacity=".2" d="M42.6 38.005L19.738 50.998a2.622 2.622 0 0 1-3.155 0l-.111.11.11.127a2.622 2.622 0 0 0 3.156 0l23.051-13.088-.189-.142z" fill="#0F1216"/>
    <path opacity=".12" d="M16.472 50.904a3.146 3.146 0 0 1-.694-2.22v.236a3.052 3.052 0 0 0 .741 2.204l.11-.11-.157-.11zm34.017-17.357L42.6 38.005l.142.142 7.747-4.379A2.76 2.76 0 0 0 52.16 31.5a2.929 2.929 0 0 1-1.672 2.047z" fill="#0F1216"/>
    <path opacity=".25" d="M19.738 12.002l30.75 17.45a2.934 2.934 0 0 1 1.673 2.048 2.753 2.753 0 0 0-1.672-2.268L19.738 11.781c-2.193-1.26-4.008-.22-4.008 2.3v.236c.048-2.52 1.815-3.56 4.008-2.316z" fill="#fff"/>
    <path d="M66.44 22.475h-1.152v-3.15h.979a4.47 4.47 0 0 0 1.151-3.575v-4.725h6.311v8.284h1.058v3.15h-1.168v-1.984H66.44v2zm2.193-6.725a6.291 6.291 0 0 1-.899 3.607h4.733V12.19h-3.834v3.559zm15.636 3.497a4.89 4.89 0 0 1-3.463 1.434 4.899 4.899 0 0 1-3.463-1.434 5.05 5.05 0 0 1 0-6.993 4.89 4.89 0 0 1 3.463-1.435 4.899 4.899 0 0 1 3.463 1.434 4.852 4.852 0 0 1 1.404 3.497 4.718 4.718 0 0 1-1.404 3.497zm-6.043-.788a3.503 3.503 0 0 0 2.572 1.071 3.46 3.46 0 0 0 2.572-1.071 3.997 3.997 0 0 0 0-5.418 3.455 3.455 0 0 0-2.572-1.071 3.51 3.51 0 0 0-2.572 1.071 4.044 4.044 0 0 0 0 5.418zm13.57 2.22a4.74 4.74 0 0 1-3.44-1.401 5.099 5.099 0 0 1 0-7.056 4.733 4.733 0 0 1 3.502-1.402 4.347 4.347 0 0 1 3.471 1.575l-.836.82a3.155 3.155 0 0 0-2.635-1.213 3.555 3.555 0 0 0-2.619 1.055 4.044 4.044 0 0 0 0 5.45 3.55 3.55 0 0 0 2.62 1.054 3.73 3.73 0 0 0 2.808-1.401l.852.834c-.433.518-.97.936-1.578 1.229a4.883 4.883 0 0 1-2.146.457zm8.677-.204h-1.215V12.19h-2.65v-1.165h6.5v1.165h-2.635v8.285zm10.997-9.45l-3.582 7.97a2.272 2.272 0 0 1-1.234 1.468 2.296 2.296 0 0 1-1.921.012l.315-1.118c.194.108.41.168.632.173.233.012.464-.049.662-.173.192-.16.339-.366.426-.599l.347-.756-3.155-6.977h1.436l2.335 5.418 2.303-5.418h1.436zm1.373 9.45v-9.45h6.847v9.45h-1.215V12.19h-4.418v8.285h-1.214zm9.009 0v-9.45h1.215v4.048h4.733v-4.048h1.231v9.45H127.8v-4.268h-4.733v4.268h-1.215zm17.087-1.229a4.915 4.915 0 0 1-6.942 0 5.05 5.05 0 0 1 0-6.992 4.889 4.889 0 0 1 3.463-1.435 4.896 4.896 0 0 1 3.463 1.434 5.08 5.08 0 0 1 0 6.994h.016zm-6.043-.787a3.456 3.456 0 0 0 2.572 1.071 3.508 3.508 0 0 0 2.572-1.071 4.043 4.043 0 0 0 0-5.418 3.503 3.503 0 0 0-2.572-1.071 3.46 3.46 0 0 0-2.572 1.071 3.995 3.995 0 0 0 0 5.418zm12.402 2.016v-9.45h3.423a2.842 2.842 0 0 1 1.925.724 2.379 2.379 0 0 1 .821 1.843c.004.425-.117.84-.347 1.197a2.23 2.23 0 0 1-.931.772c.455.155.855.44 1.151.819.291.386.446.856.442 1.339a2.473 2.473 0 0 1-.852 1.921 2.888 2.888 0 0 1-2.019.772l-3.613.063zm1.215-5.402h2.208a1.375 1.375 0 0 0 1.105-.457c.267-.262.42-.618.426-.992a1.462 1.462 0 0 0-.363-1.024 1.341 1.341 0 0 0-1.057-.441h-2.272l-.047 2.914zm0 4.236h2.461a1.455 1.455 0 0 0 1.136-.488c.272-.29.424-.673.426-1.07a1.574 1.574 0 0 0-.442-1.056 1.576 1.576 0 0 0-1.183-.488h-2.398v3.102z" fill="#fff" stroke="#fff" stroke-width=".411" stroke-miterlimit="10"/>
    <defs>
        <linearGradient id="paint0_linear_19_151" x1="34.396" y1="13.718" x2="7.967" y2="40.193" gradientUnits="userSpaceOnUse">
            <stop stop-color="#00A0FF"/>
            <stop offset=".01" stop-color="#00A1FF"/>
            <stop offset=".26" stop-color="#00BEFF"/>
            <stop offset=".51" stop-color="#00D2FF"/>
            <stop offset=".76" stop-color="#00DFFF"/>
            <stop offset="1" stop-color="#00E3FF"/>
        </linearGradient>
        <linearGradient id="paint1_linear_19_151" x1="53.376" y1="31.5" x2="15.21" y2="31.5" gradientUnits="userSpaceOnUse">
            <stop stop-color="#FFE000"/>
            <stop offset=".41" stop-color="#FFBD00"/>
            <stop offset=".78" stop-color="orange"/>
            <stop offset="1" stop-color="#FF9C00"/>
        </linearGradient>
        <linearGradient id="paint2_linear_19_151" x1="39.176" y1="35.123" x2="3.329" y2="71.017" gradientUnits="userSpaceOnUse">
            <stop stop-color="#FF3A44"/>
            <stop offset="1" stop-color="#C31162"/>
        </linearGradient>
        <linearGradient id="paint3_linear_19_151" x1="11.518" y1=".284" x2="27.52" y2="16.314" gradientUnits="userSpaceOnUse">
            <stop stop-color="#32A071"/>
            <stop offset=".07" stop-color="#2DA771"/>
            <stop offset=".48" stop-color="#15CF74"/>
            <stop offset=".8" stop-color="#06E775"/>
            <stop offset="1" stop-color="#00F076"/>
        </linearGradient>
    </defs>
</svg>
