<svg width="190" height="63" viewBox="0 0 190 63" fill="none" xmlns="http://www.w3.org/2000/svg">
    <path fill="#0F1216" d="M174.87 0H15.139c-.582 0-1.157 0-1.738.003-.486.003-.969.013-1.46.02-1.066.013-2.13.106-3.181.279-1.05.176-2.068.51-3.018.987a10.219 10.219 0 0 0-2.57 1.856A9.86 9.86 0 0 0 1.3 5.7a10.338 10.338 0 0 0-.992 2.997 20.304 20.304 0 0 0-.285 3.154c-.015.482-.016.967-.024 1.45v36.405c.008.489.01.963.024 1.452.013 1.057.108 2.11.285 3.153.174 1.044.509 2.055.992 3a9.78 9.78 0 0 0 1.87 2.542 9.96 9.96 0 0 0 2.57 1.856c.951.48 1.968.814 3.019.994 1.052.171 2.116.264 3.182.278.49.01.973.017 1.459.017.58.003 1.156.003 1.738.003H174.87c.57 0 1.15 0 1.721-.003.484 0 .98-.006 1.464-.017a21.244 21.244 0 0 0 3.175-.278 10.869 10.869 0 0 0 3.03-.994 9.983 9.983 0 0 0 2.568-1.856 10.074 10.074 0 0 0 1.876-2.543c.479-.944.811-1.956.983-3 .177-1.041.275-2.095.294-3.152.007-.49.007-.963.007-1.452.012-.572.012-1.141.012-1.723V15.02c0-.577 0-1.15-.012-1.72 0-.483 0-.968-.007-1.45a21.098 21.098 0 0 0-.294-3.154 10.377 10.377 0 0 0-.983-2.997 10.229 10.229 0 0 0-4.444-4.41A10.808 10.808 0 0 0 181.23.3a20.872 20.872 0 0 0-3.175-.278c-.484-.008-.98-.017-1.464-.02C176.02 0 175.44 0 174.87 0z"/>
    <path fill="#0F1216" d="M13.409 61.622c-.484 0-.956-.006-1.436-.017a20.307 20.307 0 0 1-2.968-.257 9.395 9.395 0 0 1-2.63-.863 8.581 8.581 0 0 1-2.219-1.601 8.384 8.384 0 0 1-1.62-2.2 8.961 8.961 0 0 1-.862-2.61 19.397 19.397 0 0 1-.265-2.953c-.01-.332-.023-1.438-.023-1.438V13.3s.014-1.09.023-1.41c.013-.987.1-1.973.263-2.948a9.014 9.014 0 0 1 .863-2.617 8.466 8.466 0 0 1 1.612-2.202 8.834 8.834 0 0 1 2.227-1.61 9.298 9.298 0 0 1 2.625-.857 20.14 20.14 0 0 1 2.978-.259l1.432-.019h163.174l1.45.02a19.81 19.81 0 0 1 2.95.256 9.475 9.475 0 0 1 2.653.863 8.847 8.847 0 0 1 3.835 3.811c.414.819.7 1.694.85 2.597.165.983.257 1.977.276 2.973.004.446.004.925.004 1.402.013.59.013 1.153.013 1.72v32.962c0 .572 0 1.13-.013 1.693 0 .513 0 .982-.006 1.465a19.842 19.842 0 0 1-.271 2.919 8.985 8.985 0 0 1-.858 2.63 8.618 8.618 0 0 1-1.612 2.183 8.6 8.6 0 0 1-2.222 1.61 9.362 9.362 0 0 1-2.649.866 20.06 20.06 0 0 1-2.967.257c-.465.01-.952.017-1.425.017l-1.721.003-161.462-.003z"/>
    <path fill="#fff" d="M39.327 31.974a7.747 7.747 0 0 1 1.024-3.747 7.824 7.824 0 0 1 2.718-2.793 8.023 8.023 0 0 0-2.763-2.442 8.094 8.094 0 0 0-3.574-.956c-2.666-.278-5.251 1.582-6.61 1.582-1.385 0-3.477-1.555-5.73-1.509a8.49 8.49 0 0 0-4.12 1.22 8.403 8.403 0 0 0-2.981 3.077c-3.071 5.273-.78 13.024 2.161 17.287 1.472 2.087 3.192 4.42 5.442 4.336 2.203-.09 3.025-1.393 5.684-1.393 2.633 0 3.405 1.393 5.701 1.34 2.364-.037 3.852-2.096 5.273-4.203a17.209 17.209 0 0 0 2.41-4.87 7.579 7.579 0 0 1-3.368-2.773 7.488 7.488 0 0 1-1.267-4.157zM34.99 19.232a7.633 7.633 0 0 0 1.77-5.498 7.892 7.892 0 0 0-5.093 2.614 7.25 7.25 0 0 0-1.816 5.294 6.554 6.554 0 0 0 2.849-.619 6.5 6.5 0 0 0 2.29-1.79zm32.176 23.513h-7.515l-1.805 5.286h-3.183l7.118-19.558h3.308l7.118 19.558H68.97l-1.803-5.286zm-6.737-2.44h5.958l-2.937-8.579h-.082l-2.939 8.58zm27.152.597c0 4.432-2.39 7.279-5.999 7.279a4.905 4.905 0 0 1-2.623-.603 4.853 4.853 0 0 1-1.9-1.892h-.068v7.063h-2.95V33.772h2.855v2.372h.055a5.08 5.08 0 0 1 1.937-1.888 5.134 5.134 0 0 1 2.64-.633c3.648 0 6.053 2.86 6.053 7.28zm-3.033 0c0-2.887-1.504-4.785-3.799-4.785-2.254 0-3.77 1.938-3.77 4.785 0 2.873 1.516 4.798 3.77 4.798 2.295 0 3.8-1.885 3.8-4.798zm18.855 0c0 4.431-2.391 7.279-5.999 7.279a4.905 4.905 0 0 1-2.623-.603 4.853 4.853 0 0 1-1.9-1.892h-.068v7.063h-2.95V33.772h2.855v2.372h.054a5.079 5.079 0 0 1 1.938-1.888 5.133 5.133 0 0 1 2.64-.633c3.648 0 6.053 2.86 6.053 7.28zm-3.033 0c0-2.887-1.504-4.785-3.799-4.785-2.254 0-3.77 1.938-3.77 4.785 0 2.873 1.516 4.798 3.77 4.798 2.295 0 3.799-1.885 3.799-4.798zm13.49 1.68c.219 1.94 2.118 3.213 4.714 3.213 2.487 0 4.276-1.274 4.276-3.023 0-1.518-1.079-2.426-3.634-3.05l-2.555-.61c-3.621-.868-5.302-2.547-5.302-5.273 0-3.374 2.965-5.692 7.175-5.692 4.166 0 7.022 2.318 7.118 5.692h-2.978c-.179-1.951-1.805-3.13-4.182-3.13-2.377 0-4.004 1.192-4.004 2.927 0 1.383 1.039 2.197 3.58 2.82l2.173.529c4.045.949 5.726 2.56 5.726 5.421 0 3.66-2.938 5.951-7.612 5.951-4.372 0-7.325-2.238-7.515-5.775h3.02zm18.475-12.185v3.375h2.734v2.318h-2.734v7.86c0 1.222.548 1.791 1.749 1.791.325-.005.649-.028.971-.068v2.304c-.54.1-1.089.146-1.639.136-2.91 0-4.045-1.084-4.045-3.85V36.09h-2.091v-2.318h2.091v-3.375h2.964zm4.317 10.505c0-4.486 2.664-7.306 6.818-7.306 4.168 0 6.819 2.82 6.819 7.306 0 4.5-2.637 7.306-6.819 7.306-4.181 0-6.818-2.807-6.818-7.306zm10.631 0c0-3.077-1.422-4.894-3.813-4.894s-3.811 1.83-3.811 4.894c0 3.09 1.42 4.893 3.811 4.893s3.813-1.803 3.813-4.893zm5.439-7.13h2.814v2.427h.069a3.4 3.4 0 0 1 1.267-1.897 3.448 3.448 0 0 1 2.19-.68c.34 0 .68.036 1.011.11v2.737a4.156 4.156 0 0 0-1.325-.176 2.998 2.998 0 0 0-2.299.938 2.944 2.944 0 0 0-.776 2.342v8.458h-2.951v-14.26zm20.956 10.071c-.397 2.589-2.938 4.365-6.19 4.365-4.182 0-6.777-2.78-6.777-7.238 0-4.473 2.609-7.374 6.653-7.374 3.977 0 6.478 2.71 6.478 7.034v1.003h-10.153v.177a3.699 3.699 0 0 0 1.015 2.885 3.747 3.747 0 0 0 2.852 1.154 3.272 3.272 0 0 0 1.995-.457 3.23 3.23 0 0 0 1.325-1.549h2.802zm-9.975-4.256h7.187a3.416 3.416 0 0 0-.966-2.574 3.48 3.48 0 0 0-2.56-1.045 3.66 3.66 0 0 0-2.591 1.053 3.601 3.601 0 0 0-1.07 2.566zM58.333 17.724h1.266a1.603 1.603 0 0 0 1.224-.36 1.581 1.581 0 0 0 .562-1.138c0-.867-.657-1.426-1.772-1.426a1.702 1.702 0 0 0-1.27.335 1.679 1.679 0 0 0-.642 1.136h-1.39a2.928 2.928 0 0 1 1.07-2.096 2.978 2.978 0 0 1 2.277-.652c1.865 0 3.179 1.036 3.179 2.527.004.5-.164.985-.478 1.377a2.202 2.202 0 0 1-1.244.772v.111c.583.026 1.132.28 1.527.705.395.426.604.99.58 1.568a3.12 3.12 0 0 1-1.176 2.134 3.176 3.176 0 0 1-2.362.66 3.172 3.172 0 0 1-2.374-.642 3.13 3.13 0 0 1-1.184-2.14h1.412c.086.9.918 1.48 2.146 1.48 1.228 0 2.03-.652 2.03-1.57 0-.931-.755-1.505-2.075-1.505h-1.307v-1.276zm6.495 3.42c0-1.277.96-2.013 2.659-2.118l1.936-.11v-.613c0-.749-.497-1.172-1.463-1.172-.788 0-1.332.287-1.49.788h-1.367c.145-1.218 1.301-2 2.923-2 1.793 0 2.804.886 2.804 2.384v4.846h-1.36v-.997h-.112a2.399 2.399 0 0 1-.922.845c-.377.195-.8.288-1.225.269a2.175 2.175 0 0 1-1.667-.537 2.142 2.142 0 0 1-.716-1.586zm4.595-.607v-.593l-1.746.111c-.984.065-1.43.398-1.43 1.023 0 .638.557 1.01 1.325 1.01a1.698 1.698 0 0 0 1.257-.386 1.673 1.673 0 0 0 .594-1.165zm5.151-3.302v5.914h-1.41v-7.092h4.707v1.178h-3.297zM86.422 19.6c0 2.253-1.149 3.666-2.953 3.666a2.346 2.346 0 0 1-1.276-.277 2.321 2.321 0 0 1-.925-.914h-.111v3.432h-1.411v-9.45h1.358v1.172h.105c.218-.4.543-.731.94-.959a2.5 2.5 0 0 1 1.305-.33c1.82 0 2.968 1.406 2.968 3.66zm-1.451 0c0-1.498-.715-2.404-1.91-2.404-1.188 0-1.93.925-1.93 2.41 0 1.478.742 2.403 1.924 2.403 1.201 0 1.916-.905 1.916-2.41zm3.33 6.09v-1.206c.153.02.307.028.461.026.3.022.599-.067.838-.25.238-.182.4-.446.455-.74l.106-.345-2.588-7.118h1.536l1.793 5.633h.111l1.787-5.633h1.496l-2.665 7.385c-.611 1.726-1.287 2.28-2.745 2.28a6.21 6.21 0 0 1-.584-.033zm7.094-4.554H96.8c.138.626.729.952 1.555.952.94 0 1.517-.411 1.517-1.05 0-.683-.518-1.009-1.517-1.009h-1.07v-1.087h1.052c.853 0 1.287-.326 1.287-.919 0-.52-.42-.918-1.287-.918-.79 0-1.366.332-1.458.892h-1.36a2.482 2.482 0 0 1 .981-1.61 2.52 2.52 0 0 1 1.837-.467c1.699 0 2.671.762 2.671 1.96.008.334-.099.66-.305.925-.205.264-.496.45-.823.527v.111c.389.05.747.24 1.005.534.258.294.398.672.393 1.062 0 1.348-1.156 2.24-2.923 2.24-1.561 0-2.83-.71-2.96-2.143zm7.915 2.013v-7.092h1.399v4.878h.111l3.295-4.878h1.399v7.092h-1.399v-4.904h-.105l-3.301 4.904h-1.399zm13.909-5.914h-2.252v5.914h-1.412v-5.914h-2.252v-1.178h5.916v1.178zm7.601 3.999a2.886 2.886 0 0 1-1.175 1.584 2.923 2.923 0 0 1-1.925.468 3.271 3.271 0 0 1-2.506-1.072 3.207 3.207 0 0 1-.797-2.589 3.266 3.266 0 0 1 1.925-3.422c.432-.19.9-.287 1.372-.283 1.989 0 3.191 1.348 3.191 3.575v.489h-5.049v.078a1.863 1.863 0 0 0 .499 1.434 1.885 1.885 0 0 0 1.405.598c.338.04.679-.02.982-.174.303-.153.552-.392.718-.686h1.36zm-4.964-2.286h3.61a1.704 1.704 0 0 0-1.057-1.706 1.737 1.737 0 0 0-.701-.13 1.841 1.841 0 0 0-1.317.53 1.81 1.81 0 0 0-.535 1.306zm10.946-2.891h3.223c1.399 0 2.219.703 2.219 1.803.002.35-.116.689-.336.961a1.54 1.54 0 0 1-.872.537v.111c.418.026.809.21 1.094.515.284.304.44.705.435 1.12 0 1.237-.938 2.045-2.507 2.045h-3.256v-7.092zm1.398 1.074v1.837h1.399c.853 0 1.261-.326 1.261-.925 0-.553-.355-.912-1.104-.912H132.2zm0 2.866v2.078h1.674c.834 0 1.28-.366 1.28-1.036 0-.71-.505-1.042-1.457-1.042H132.2z"/>
</svg>
